<svg xmlns="http://www.w3.org/2000/svg" width="20.719" height="26.25" viewBox="0 0 20.719 26.25">
  <metadata><?xpacket begin="﻿" id="W5M0MpCehiHzreSzNTczkc9d"?>
<x:xmpmeta xmlns:x="adobe:ns:meta/" x:xmptk="Adobe XMP Core 5.6-c138 79.159824, 2016/09/14-01:09:01        ">
   <rdf:RDF xmlns:rdf="http://www.w3.org/1999/02/22-rdf-syntax-ns#">
      <rdf:Description rdf:about=""/>
   </rdf:RDF>
</x:xmpmeta>
                                                                                                    
                                                                                                    
                                                                                                    
                                                                                                    
                                                                                                    
                                                                                                    
                                                                                                    
                                                                                                    
                                                                                                    
                                                                                                    
                                                                                                    
                                                                                                    
                                                                                                    
                                                                                                    
                                                                                                    
                                                                                                    
                                                                                                    
                                                                                                    
                                                                                                    
                                                                                                    
                           
<?xpacket end="w"?></metadata>
<defs>
    <style>
      .cls-1 {
        fill: #00ffd7;
        fill-rule: evenodd;
      }
    </style>
  </defs>
  <path id="геолокация" class="cls-1" d="M146.608,2795.81a10.439,10.439,0,0,0-9.933,9.45,10.619,10.619,0,0,0,.138,3.01h0a3.274,3.274,0,0,0,.069.33,10.728,10.728,0,0,0,.7,2.08c1.037,2.49,3.437,6.65,8.821,11.18a0.891,0.891,0,0,0,1.149,0c5.384-4.52,7.784-8.69,8.827-11.19a10.1,10.1,0,0,0,.7-2.07c0.048-.21.069-0.33,0.069-0.33h0a10.739,10.739,0,0,0,.186-1.99A10.408,10.408,0,0,0,146.608,2795.81Zm0.367,15.68A5.085,5.085,0,1,1,152,2806.4,5.06,5.06,0,0,1,146.975,2811.49Z" transform="translate(-136.625 -2795.81)"/>
</svg>
